# xmcd
#
# Track frame offsets:
#	182
#	4735
#	37492
#	48002
#	74132
#	98992
#	109652
#	141787
#	169560
#	199427
#
# Disc length: 2799 seconds
#
# Revision: 20
# Processed by: cddbd v1.5.2PL0 Copyright (c) Steve Scherf et al.
# Submitted via: Jack! The Knife 20 Magnifico
#
DISCID=910aed0a
DTITLE=Candlemass - Nightfall
DYEAR=1987
DGENRE=Metal
TTITLE0=Gothic Stone
TTITLE1=The Well Of Souls
TTITLE2=Codex Gigas
TTITLE3=At The Gallows End
TTITLE4=Samarithan
TTITLE5=March Funebre
TTITLE6=Dark Are The Veils Of Death
TTITLE7=Mourner's Lament
TTITLE8=Bewitched
TTITLE9=Black Candles
EXTD=Ragne Wahlqvist and Candlemass
EXTT0=Leif Edling
EXTT1=Leif Edling
EXTT2=Leif Edling
EXTT3=Leif Edling
EXTT4=Leif Edling
EXTT5=Frederich Chopin
EXTT6=Leif Edling
EXTT7=Leif Edling
EXTT8=Leif Edling
EXTT9=Mike Wead
PLAYORDER=
